<svg xmlns="http://www.w3.org/2000/svg" xmlns:xlink="http://www.w3.org/1999/xlink" width="500" zoomAndPan="magnify" viewBox="0 0 375 374.999991" height="500" preserveAspectRatio="xMidYMid meet" version="1.0"><defs><g/><clipPath id="0d68bf145b"><path d="M 234 144.164062 L 269.699219 144.164062 L 269.699219 174 L 234 174 Z M 234 144.164062 " clip-rule="nonzero"/></clipPath><clipPath id="d1bafade0a"><path d="M 202 168 L 237 168 L 237 225.164062 L 202 225.164062 Z M 202 168 " clip-rule="nonzero"/></clipPath></defs><g clip-path="url(#0d68bf145b)"><path fill="#dde7f3" d="M 269.222656 145.03125 C 268.613281 144.167969 264.003906 146.480469 263.449219 146.757812 C 260.597656 148.1875 258.464844 149.84375 257.019531 151.132812 C 255.683594 150.449219 254.351562 149.765625 253.015625 149.082031 C 253.316406 148.851562 253.613281 148.621094 253.914062 148.390625 C 253.746094 148.171875 253.46875 147.863281 253.0625 147.59375 C 252.574219 147.269531 252.113281 147.136719 251.820312 147.074219 C 251.550781 147.316406 251.277344 147.554688 251.007812 147.796875 C 248.660156 146.671875 246.316406 145.542969 243.96875 144.417969 C 243.957031 144.417969 243.945312 144.417969 243.933594 144.417969 C 242.5625 144.882812 241.296875 145.597656 239.992188 146.222656 C 242.933594 147.988281 245.875 149.757812 248.816406 151.527344 L 248.300781 152.015625 C 248.453125 152.113281 248.601562 152.210938 248.753906 152.308594 C 249.003906 152.1875 249.257812 152.066406 249.507812 151.945312 C 250.5625 152.578125 251.613281 153.207031 252.664062 153.839844 L 241.261719 163.519531 C 239.996094 162.929688 238.730469 162.34375 237.464844 161.757812 C 236.472656 162.125 235.480469 162.496094 234.488281 162.863281 L 239.269531 165.839844 C 238.957031 166.191406 238.644531 166.542969 238.328125 166.894531 C 238.402344 166.992188 238.476562 167.09375 238.546875 167.195312 C 238.96875 167.042969 239.390625 166.894531 239.8125 166.742188 C 240.027344 168.488281 240.246094 170.230469 240.464844 171.976562 C 241.210938 171.246094 241.953125 170.515625 242.699219 169.789062 C 242.671875 168.328125 242.644531 166.871094 242.617188 165.414062 L 255.441406 157.800781 L 256.046875 161.042969 L 255.542969 161.53125 L 255.625 161.855469 C 255.757812 161.871094 255.894531 161.882812 256.03125 161.894531 C 256.570312 165.640625 257.109375 169.382812 257.648438 173.125 C 258.054688 172.769531 258.375 172.46875 258.585938 172.257812 C 259.28125 171.5625 259.941406 170.832031 260.671875 170.171875 C 260.773438 170.078125 260.878906 169.988281 260.984375 169.898438 C 260.839844 167.050781 260.695312 164.203125 260.550781 161.351562 C 260.863281 161.171875 261.179688 160.992188 261.496094 160.8125 C 261.550781 160.523438 261.601562 160.058594 261.496094 159.503906 C 261.410156 159.058594 261.253906 158.710938 261.125 158.476562 C 260.773438 158.601562 260.425781 158.726562 260.074219 158.847656 C 259.921875 157.421875 259.765625 155.996094 259.613281 154.570312 C 261.457031 153.46875 263.902344 151.773438 266.335938 149.238281 C 267.359375 148.175781 269.710938 145.726562 269.222656 145.03125 Z M 269.222656 145.03125 " fill-opacity="1" fill-rule="nonzero"/></g><g clip-path="url(#d1bafade0a)"><path fill="#dde7f3" d="M 205.40625 200.546875 C 203.261719 205.554688 201.449219 211.976562 202.675781 217.40625 C 203.175781 219.859375 204.351562 222.367188 206.5 223.789062 C 208.574219 225.199219 211.234375 225.425781 213.625 224.894531 C 210.5 225.09375 207.285156 224.175781 205.566406 221.394531 C 204.753906 220.113281 204.355469 218.625 204.144531 217.132812 C 203.261719 211.421875 205.894531 204.390625 208.433594 199.316406 C 211.085938 194.046875 214.460938 189.15625 218.277344 184.65625 C 221.738281 180.578125 225.570312 176.847656 229.707031 173.445312 C 232.011719 171.542969 234.425781 169.757812 236.878906 168.050781 C 223.378906 174.6875 211.441406 186.71875 205.40625 200.546875 Z M 205.40625 200.546875 " fill-opacity="1" fill-rule="nonzero"/></g><g fill="#3be8b0" fill-opacity="1"><g transform="translate(105.292483, 223.113062)"><g><path d="M 2.65625 -5.453125 C 2.75 -5.296875 2.820312 -5.132812 2.875 -4.96875 C 2.9375 -4.8125 3.003906 -4.601562 3.078125 -4.34375 C 3.109375 -4.25 3.140625 -4.144531 3.171875 -4.03125 C 3.484375 -2.988281 4.082031 -2.1875 4.96875 -1.625 C 5.851562 -1.0625 6.867188 -0.78125 8.015625 -0.78125 C 8.609375 -0.78125 9.1875 -0.882812 9.75 -1.09375 C 10.3125 -1.3125 10.773438 -1.632812 11.140625 -2.0625 C 11.503906 -2.488281 11.6875 -3.007812 11.6875 -3.625 C 11.6875 -4.164062 11.5 -4.664062 11.125 -5.125 C 10.75 -5.582031 10.285156 -5.992188 9.734375 -6.359375 C 9.179688 -6.722656 8.414062 -7.175781 7.4375 -7.71875 C 6.289062 -8.351562 5.359375 -8.914062 4.640625 -9.40625 C 3.929688 -9.894531 3.328125 -10.472656 2.828125 -11.140625 C 2.335938 -11.816406 2.09375 -12.578125 2.09375 -13.421875 C 2.09375 -14.472656 2.382812 -15.335938 2.96875 -16.015625 C 3.5625 -16.703125 4.320312 -17.203125 5.25 -17.515625 C 6.175781 -17.828125 7.15625 -17.984375 8.1875 -17.984375 C 9.070312 -17.984375 9.953125 -17.875 10.828125 -17.65625 C 11.710938 -17.4375 12.550781 -17.125 13.34375 -16.71875 L 13.515625 -12.859375 L 12.6875 -12.859375 C 12.570312 -13.066406 12.441406 -13.394531 12.296875 -13.84375 L 12.171875 -14.234375 C 11.859375 -15.117188 11.320312 -15.789062 10.5625 -16.25 C 9.8125 -16.707031 8.945312 -16.9375 7.96875 -16.9375 C 7.457031 -16.9375 6.941406 -16.847656 6.421875 -16.671875 C 5.910156 -16.503906 5.484375 -16.242188 5.140625 -15.890625 C 4.796875 -15.535156 4.625 -15.09375 4.625 -14.5625 C 4.625 -14.070312 4.800781 -13.613281 5.15625 -13.1875 C 5.519531 -12.769531 5.96875 -12.382812 6.5 -12.03125 C 7.03125 -11.6875 7.769531 -11.253906 8.71875 -10.734375 C 9.914062 -10.066406 10.882812 -9.476562 11.625 -8.96875 C 12.375 -8.457031 13.007812 -7.835938 13.53125 -7.109375 C 14.0625 -6.390625 14.328125 -5.570312 14.328125 -4.65625 C 14.328125 -3.53125 14.015625 -2.585938 13.390625 -1.828125 C 12.773438 -1.078125 11.972656 -0.523438 10.984375 -0.171875 C 9.992188 0.179688 8.941406 0.359375 7.828125 0.359375 C 6.835938 0.359375 5.769531 0.234375 4.625 -0.015625 C 3.476562 -0.265625 2.554688 -0.609375 1.859375 -1.046875 L 1.859375 -5.421875 Z M 2.65625 -5.453125 "/></g></g></g><g fill="#3be8b0" fill-opacity="1"><g transform="translate(121.105104, 223.113062)"><g><path d="M 6.703125 -3.453125 C 6.703125 -2.785156 6.757812 -2.289062 6.875 -1.96875 C 7 -1.65625 7.160156 -1.445312 7.359375 -1.34375 C 7.566406 -1.25 7.882812 -1.160156 8.3125 -1.078125 C 8.851562 -0.992188 9.320312 -0.867188 9.71875 -0.703125 L 9.6875 0 L 0.96875 0 C 0.957031 -0.0703125 0.945312 -0.164062 0.9375 -0.28125 C 0.925781 -0.394531 0.921875 -0.535156 0.921875 -0.703125 C 1.171875 -0.816406 1.398438 -0.898438 1.609375 -0.953125 C 1.828125 -1.003906 2.078125 -1.0625 2.359375 -1.125 C 2.765625 -1.207031 3.054688 -1.300781 3.234375 -1.40625 C 3.421875 -1.519531 3.5625 -1.734375 3.65625 -2.046875 C 3.75 -2.367188 3.796875 -2.882812 3.796875 -3.59375 L 3.796875 -14.0625 C 3.796875 -14.71875 3.738281 -15.207031 3.625 -15.53125 C 3.519531 -15.851562 3.367188 -16.070312 3.171875 -16.1875 C 2.972656 -16.300781 2.664062 -16.410156 2.25 -16.515625 C 2.0625 -16.554688 1.847656 -16.613281 1.609375 -16.6875 C 1.378906 -16.757812 1.15625 -16.847656 0.9375 -16.953125 L 0.96875 -17.640625 L 9.671875 -17.640625 L 9.703125 -16.9375 C 9.296875 -16.757812 8.828125 -16.613281 8.296875 -16.5 C 7.867188 -16.414062 7.550781 -16.316406 7.34375 -16.203125 C 7.144531 -16.085938 6.988281 -15.863281 6.875 -15.53125 C 6.757812 -15.207031 6.703125 -14.710938 6.703125 -14.046875 L 6.703125 -9.640625 L 16.375 -9.640625 L 16.375 -14.1875 C 16.375 -14.800781 16.320312 -15.253906 16.21875 -15.546875 C 16.113281 -15.847656 15.960938 -16.054688 15.765625 -16.171875 C 15.578125 -16.285156 15.285156 -16.394531 14.890625 -16.5 C 14.398438 -16.625 13.976562 -16.773438 13.625 -16.953125 L 13.65625 -17.640625 L 22.15625 -17.640625 L 22.1875 -16.9375 C 21.78125 -16.800781 21.394531 -16.6875 21.03125 -16.59375 C 20.53125 -16.457031 20.171875 -16.328125 19.953125 -16.203125 C 19.742188 -16.078125 19.582031 -15.847656 19.46875 -15.515625 C 19.351562 -15.179688 19.296875 -14.660156 19.296875 -13.953125 L 19.296875 -3.625 C 19.296875 -2.894531 19.34375 -2.363281 19.4375 -2.03125 C 19.539062 -1.707031 19.691406 -1.488281 19.890625 -1.375 C 20.097656 -1.257812 20.4375 -1.15625 20.90625 -1.0625 C 21.425781 -0.9375 21.851562 -0.816406 22.1875 -0.703125 L 22.1875 0 L 13.65625 0 L 13.625 -0.703125 C 13.851562 -0.828125 14.0625 -0.914062 14.25 -0.96875 C 14.4375 -1.03125 14.6875 -1.09375 15 -1.15625 C 15.363281 -1.21875 15.628906 -1.296875 15.796875 -1.390625 C 15.972656 -1.492188 16.113281 -1.695312 16.21875 -2 C 16.320312 -2.300781 16.375 -2.773438 16.375 -3.421875 L 16.375 -8.46875 L 6.703125 -8.46875 Z M 6.703125 -3.453125 "/></g></g></g><g fill="#3be8b0" fill-opacity="1"><g transform="translate(144.207519, 223.113062)"><g><path d="M 5.359375 -7.203125 L 5.109375 -6.5625 C 4.703125 -5.5 4.378906 -4.625 4.140625 -3.9375 C 3.910156 -3.257812 3.796875 -2.738281 3.796875 -2.375 C 3.796875 -2.050781 3.914062 -1.785156 4.15625 -1.578125 C 4.394531 -1.367188 4.671875 -1.210938 4.984375 -1.109375 C 5.296875 -1.015625 5.675781 -0.921875 6.125 -0.828125 L 6.375 -0.765625 L 6.375 0 L -0.015625 0 L -0.015625 -0.703125 C 0.109375 -0.804688 0.234375 -0.890625 0.359375 -0.953125 C 0.492188 -1.023438 0.664062 -1.097656 0.875 -1.171875 C 1.1875 -1.304688 1.4375 -1.441406 1.625 -1.578125 C 1.820312 -1.710938 2 -1.921875 2.15625 -2.203125 C 2.25 -2.390625 2.34375 -2.597656 2.4375 -2.828125 C 2.53125 -3.054688 2.585938 -3.207031 2.609375 -3.28125 L 2.78125 -3.703125 L 7.84375 -16.6875 C 7.882812 -16.78125 7.910156 -16.945312 7.921875 -17.1875 C 7.929688 -17.375 7.945312 -17.519531 7.96875 -17.625 C 8 -17.738281 8.046875 -17.84375 8.109375 -17.9375 C 8.546875 -17.9375 8.925781 -17.890625 9.25 -17.796875 C 9.570312 -17.710938 9.894531 -17.546875 10.21875 -17.296875 L 16.4375 -2.390625 C 16.550781 -2.109375 16.6875 -1.882812 16.84375 -1.71875 C 17 -1.550781 17.160156 -1.421875 17.328125 -1.328125 C 17.492188 -1.242188 17.71875 -1.144531 18 -1.03125 C 18.25 -0.945312 18.507812 -0.835938 18.78125 -0.703125 L 18.75 0 L 10.859375 0 L 10.84375 -0.703125 C 11.269531 -0.828125 11.632812 -0.953125 11.9375 -1.078125 C 12.238281 -1.210938 12.507812 -1.390625 12.75 -1.609375 C 12.988281 -1.835938 13.109375 -2.113281 13.109375 -2.4375 C 13.109375 -2.800781 12.660156 -4.144531 11.765625 -6.46875 C 11.710938 -6.601562 11.660156 -6.734375 11.609375 -6.859375 C 11.554688 -6.984375 11.515625 -7.097656 11.484375 -7.203125 Z M 8.3125 -15.0625 L 5.828125 -8.40625 L 10.96875 -8.40625 Z M 8.3125 -15.0625 "/></g></g></g><g fill="#3be8b0" fill-opacity="1"><g transform="translate(162.852049, 223.113062)"><g><path d="M 9.421875 -7.34375 C 9.203125 -7.664062 9.015625 -7.90625 8.859375 -8.0625 C 8.710938 -8.21875 8.535156 -8.332031 8.328125 -8.40625 C 8.117188 -8.488281 7.835938 -8.539062 7.484375 -8.5625 L 6.625 -8.625 L 6.625 -3.40625 C 6.625 -2.75 6.679688 -2.265625 6.796875 -1.953125 C 6.910156 -1.648438 7.0625 -1.445312 7.25 -1.34375 C 7.445312 -1.25 7.738281 -1.171875 8.125 -1.109375 C 8.40625 -1.066406 8.65625 -1.015625 8.875 -0.953125 C 9.09375 -0.898438 9.316406 -0.816406 9.546875 -0.703125 L 9.53125 0 L 0.953125 0 L 0.921875 -0.703125 C 1.160156 -0.835938 1.382812 -0.929688 1.59375 -0.984375 C 1.8125 -1.046875 2.0625 -1.101562 2.34375 -1.15625 C 2.707031 -1.207031 2.976562 -1.285156 3.15625 -1.390625 C 3.332031 -1.492188 3.46875 -1.722656 3.5625 -2.078125 C 3.664062 -2.429688 3.71875 -2.988281 3.71875 -3.75 L 3.71875 -14.03125 C 3.71875 -14.664062 3.660156 -15.144531 3.546875 -15.46875 C 3.441406 -15.789062 3.285156 -16.007812 3.078125 -16.125 C 2.878906 -16.25 2.5625 -16.378906 2.125 -16.515625 C 1.664062 -16.640625 1.265625 -16.78125 0.921875 -16.9375 L 0.953125 -17.640625 L 7.1875 -17.640625 C 8.882812 -17.640625 10.363281 -17.5625 11.625 -17.40625 C 12.882812 -17.257812 14.015625 -16.851562 15.015625 -16.1875 C 16.015625 -15.53125 16.515625 -14.515625 16.515625 -13.140625 C 16.515625 -12.296875 16.273438 -11.5625 15.796875 -10.9375 C 15.328125 -10.320312 14.71875 -9.835938 13.96875 -9.484375 C 13.226562 -9.128906 12.429688 -8.890625 11.578125 -8.765625 C 11.691406 -8.617188 12.234375 -7.867188 13.203125 -6.515625 C 13.910156 -5.503906 14.515625 -4.660156 15.015625 -3.984375 C 15.515625 -3.304688 16.015625 -2.671875 16.515625 -2.078125 C 16.816406 -1.753906 17.082031 -1.503906 17.3125 -1.328125 C 17.550781 -1.148438 17.84375 -1.003906 18.1875 -0.890625 C 18.539062 -0.785156 18.988281 -0.734375 19.53125 -0.734375 L 19.53125 0.03125 C 18.632812 0.25 17.835938 0.359375 17.140625 0.359375 C 16.179688 0.359375 15.300781 0.0664062 14.5 -0.515625 C 13.707031 -1.109375 13.019531 -1.804688 12.4375 -2.609375 C 11.851562 -3.421875 11.1875 -4.445312 10.4375 -5.6875 C 9.988281 -6.445312 9.648438 -7 9.421875 -7.34375 Z M 7.296875 -9.53125 C 8.453125 -9.53125 9.453125 -9.597656 10.296875 -9.734375 C 11.140625 -9.867188 11.859375 -10.1875 12.453125 -10.6875 C 13.054688 -11.195312 13.359375 -11.960938 13.359375 -12.984375 C 13.359375 -14.097656 13.035156 -14.921875 12.390625 -15.453125 C 11.742188 -15.992188 10.988281 -16.320312 10.125 -16.4375 C 9.257812 -16.5625 8.191406 -16.625 6.921875 -16.625 L 6.625 -16.625 L 6.625 -9.53125 Z M 7.296875 -9.53125 "/></g></g></g><g fill="#3be8b0" fill-opacity="1"><g transform="translate(182.323118, 223.113062)"><g><path d="M 16.84375 0.125 C 16.695312 0.144531 16.550781 0.15625 16.40625 0.15625 C 16.238281 0.15625 15.984375 0.128906 15.640625 0.078125 C 15.296875 0.0234375 15.03125 0 14.84375 0 L 0.953125 0 L 0.921875 -0.65625 C 1.203125 -0.8125 1.460938 -0.921875 1.703125 -0.984375 C 1.941406 -1.054688 2.207031 -1.117188 2.5 -1.171875 C 2.851562 -1.234375 3.113281 -1.3125 3.28125 -1.40625 C 3.445312 -1.507812 3.578125 -1.722656 3.671875 -2.046875 C 3.765625 -2.378906 3.8125 -2.90625 3.8125 -3.625 L 3.8125 -13.875 C 3.8125 -14.582031 3.753906 -15.101562 3.640625 -15.4375 C 3.523438 -15.769531 3.359375 -16 3.140625 -16.125 C 2.921875 -16.257812 2.5625 -16.40625 2.0625 -16.5625 C 1.976562 -16.582031 1.820312 -16.628906 1.59375 -16.703125 C 1.363281 -16.773438 1.140625 -16.859375 0.921875 -16.953125 L 0.953125 -17.640625 L 14.765625 -17.640625 C 14.890625 -17.640625 15.023438 -17.648438 15.171875 -17.671875 C 15.328125 -17.691406 15.4375 -17.703125 15.5 -17.703125 C 15.769531 -17.753906 16.015625 -17.78125 16.234375 -17.78125 C 16.421875 -17.78125 16.585938 -17.757812 16.734375 -17.71875 L 16.734375 -13.515625 L 16.03125 -13.484375 C 15.875 -13.640625 15.742188 -13.8125 15.640625 -14 C 15.546875 -14.1875 15.4375 -14.4375 15.3125 -14.75 C 15.132812 -15.195312 14.957031 -15.546875 14.78125 -15.796875 C 14.601562 -16.046875 14.34375 -16.234375 14 -16.359375 C 13.488281 -16.515625 12.859375 -16.613281 12.109375 -16.65625 C 11.359375 -16.707031 10.492188 -16.734375 9.515625 -16.734375 C 8.359375 -16.734375 7.445312 -16.691406 6.78125 -16.609375 C 6.738281 -16.203125 6.71875 -15.738281 6.71875 -15.21875 L 6.71875 -9.71875 L 10.625 -9.71875 C 11.332031 -9.71875 11.863281 -9.769531 12.21875 -9.875 C 12.570312 -9.988281 12.84375 -10.164062 13.03125 -10.40625 C 13.226562 -10.644531 13.5 -11.078125 13.84375 -11.703125 L 14.046875 -12.078125 L 14.828125 -12.078125 L 14.828125 -6.265625 L 14.046875 -6.21875 C 13.765625 -7 13.398438 -7.601562 12.953125 -8.03125 C 12.503906 -8.46875 11.90625 -8.6875 11.15625 -8.6875 L 6.71875 -8.6875 L 6.71875 -4.125 C 6.71875 -3.175781 6.828125 -2.472656 7.046875 -2.015625 C 7.273438 -1.566406 7.597656 -1.273438 8.015625 -1.140625 C 8.429688 -1.015625 9.03125 -0.953125 9.8125 -0.953125 L 11.140625 -0.953125 C 12.273438 -0.953125 13.253906 -1.078125 14.078125 -1.328125 C 14.910156 -1.585938 15.523438 -2.113281 15.921875 -2.90625 L 16.109375 -3.328125 C 16.273438 -3.679688 16.40625 -3.945312 16.5 -4.125 C 16.601562 -4.300781 16.734375 -4.472656 16.890625 -4.640625 L 17.734375 -4.640625 Z M 16.84375 0.125 "/></g></g></g><g fill="#3be8b0" fill-opacity="1"><g transform="translate(201.103146, 223.113062)"><g/></g></g><g fill="#ff3131" fill-opacity="1"><g transform="translate(207.608882, 223.113062)"><g><path d="M 3.96875 -18.640625 C 4.40625 -18.640625 4.773438 -18.484375 5.078125 -18.171875 C 5.390625 -17.867188 5.546875 -17.503906 5.546875 -17.078125 C 5.546875 -16.628906 5.390625 -16.253906 5.078125 -15.953125 C 4.773438 -15.648438 4.40625 -15.5 3.96875 -15.5 C 3.53125 -15.5 3.15625 -15.648438 2.84375 -15.953125 C 2.539062 -16.253906 2.390625 -16.628906 2.390625 -17.078125 C 2.390625 -17.503906 2.539062 -17.867188 2.84375 -18.171875 C 3.15625 -18.484375 3.53125 -18.640625 3.96875 -18.640625 Z M 2.890625 -9.84375 C 2.765625 -10.050781 2.539062 -10.238281 2.21875 -10.40625 C 1.90625 -10.570312 1.578125 -10.710938 1.234375 -10.828125 C 0.898438 -10.941406 0.734375 -10.992188 0.734375 -10.984375 L 0.765625 -11.46875 L 4.5625 -12.390625 L 5.40625 -12.4375 L 5.40625 -2.984375 C 5.40625 -2.660156 5.4375 -2.359375 5.5 -2.078125 C 5.570312 -1.804688 5.78125 -1.523438 6.125 -1.234375 C 6.476562 -0.941406 7.03125 -0.753906 7.78125 -0.671875 C 7.78125 -0.378906 7.773438 -0.15625 7.765625 0 L 0.6875 0 C 0.664062 -0.164062 0.65625 -0.390625 0.65625 -0.671875 L 1.046875 -0.78125 C 1.441406 -0.894531 1.757812 -1.003906 2 -1.109375 C 2.25 -1.222656 2.457031 -1.382812 2.625 -1.59375 C 2.800781 -1.800781 2.890625 -2.085938 2.890625 -2.453125 Z M 2.890625 -9.84375 "/></g></g></g><g fill="#3be8b0" fill-opacity="1"><g transform="translate(215.659663, 223.113062)"><g><path d="M 4.96875 -4.25 C 4.96875 -3.332031 5 -2.675781 5.0625 -2.28125 C 5.125 -1.882812 5.273438 -1.597656 5.515625 -1.421875 C 5.765625 -1.253906 6.179688 -1.171875 6.765625 -1.171875 C 7.109375 -1.171875 7.453125 -1.203125 7.796875 -1.265625 C 8.140625 -1.328125 8.425781 -1.394531 8.65625 -1.46875 L 8.765625 -0.46875 C 8.304688 -0.25 7.84375 -0.0703125 7.375 0.0625 C 6.90625 0.195312 6.335938 0.265625 5.671875 0.265625 C 4.796875 0.265625 4.128906 0.125 3.671875 -0.15625 C 3.210938 -0.445312 2.890625 -0.914062 2.703125 -1.5625 C 2.523438 -2.207031 2.4375 -3.117188 2.4375 -4.296875 L 2.4375 -11.171875 L 0.421875 -11.171875 L 0.421875 -11.640625 C 1.035156 -11.878906 1.550781 -12.164062 1.96875 -12.5 C 2.394531 -12.832031 2.742188 -13.171875 3.015625 -13.515625 C 3.285156 -13.867188 3.609375 -14.335938 3.984375 -14.921875 C 4.148438 -15.179688 4.273438 -15.351562 4.359375 -15.4375 C 4.453125 -15.519531 4.546875 -15.5625 4.640625 -15.5625 C 4.722656 -15.5625 4.796875 -15.519531 4.859375 -15.4375 C 4.921875 -15.351562 4.953125 -15.222656 4.953125 -15.046875 L 4.953125 -12.1875 L 8.34375 -12.1875 L 8.34375 -11.171875 L 4.96875 -11.171875 Z M 4.96875 -4.25 "/></g></g></g></svg>